<svg xmlns="http://www.w3.org/2000/svg" shape-rendering="geometricPrecision" text-rendering="geometricPrecision" image-rendering="optimizeQuality" fill-rule="evenodd" clip-rule="evenodd" viewBox="0 0 512 398.482"><path d="M179.979 33.318c23.382-10.59 49.304-16.462 76.656-16.462 32.457 0 63.019 8.309 89.58 22.929.045-6.16.619-12.782 1.65-19.802 1.216-8.323 8.952-14.084 17.276-12.867a15.157 15.157 0 019.353 5.152c12.797 13.598 28.017 24.517 42.852 35.152.336.241.66.495.973.758l4.921 3.54c23.468 16.964 43.807 36.41 59.108 59.252 15.574 23.251 25.866 49.861 28.872 80.726 4.595 47.056-11.364 92.231-41.708 128.004-29.852 35.197-73.703 61.287-125.511 70.917-6.974 1.278-13.71-2.424-16.546-8.579-3.952 2.883-8.198 5.368-12.699 7.475-27.339 12.798-63.961 11.019-99.43.219a242.826 242.826 0 01-20.334-7.208 15.174 15.174 0 01-2.058 5.864c-3.291 5.461-9.467 8.115-15.401 7.189-50.117-5.689-90.435-24.669-119.927-51.541-27.49-25.048-45.503-56.91-53.263-91.286-7.731-34.256-5.235-70.962 8.256-105.841 15.151-39.175 44.133-75.975 88.004-104.212 6.518-4.184-.325.237 6.213-3.933 16.042-10.228 32.507-20.727 46.848-34.515 6.053-5.823 15.682-5.638 21.505.416a15.155 15.155 0 014.232 9.848c.591 6.658.801 12.946.578 18.805zM112.508 297.74c28.575-21.792 43.273-51.935 51.544-85.919-16.541 25.4-36.258 47.859-59.853 66.713l-15.404-48.446c24.771-15.758 43.076-41.393 55.345-76.355-18.069 24.888-37.981 45.546-57.462 50.602-26.067-191.556-14.386 43.782-7.722 66.517-15.953-10.818-29.79-25.909-41.588-45.115 5.448 32.768 19.245 61.028 55.737 77.021 20.266 34.533 57.816 60.246 86.783 77.766C-2.495 360.299-43.849 153.77 108.824 55.505c18.618-11.956 38.138-23.715 55.384-40.295 1.764 19.128.118 34.493-6.545 44.214 15.875 6.664 23.753 3.097 37.433-2.978.823 14.149 4.156 29.71-2.352 41.156 13.013-1.921 22.617-2.43 33.395-10.936 3.724 16.894-.235 32.259-4.977 46.37 16.815.353 30.534 3.292 40.686 7.761-1.137-8.466-1.294-17.207-.392-25.282 11.68 8.27 25.321 17.09 40.294 17.599-3.841-13.915-6.859-28.966-2.391-45.077 9.995 8.781 19.246 9.8 31.71 12.348-5.683-11.407-1.646-26.301-.117-39.941 12.895 6.584 20.343 10.425 36.022 4.82-5.958-9.759-6.742-24.655-4.037-43.076 15.797 16.932 34.062 29.319 51.427 41.862 44.135 31.906 76.237 72.749 81.724 129.075 8.349 85.488-58.246 164.587-154.828 182.539 28.888-15.404 53.975-39.471 75.338-71.808 36.138-13.524 50.915-40.137 57.892-71.534-12.425 17.951-26.575 31.827-42.567 41.43 7.643-21.637 31.24-248.546-3.998-64.714-18.541-5.918-36.727-26.928-52.876-51.935 9.995 34.414 26.379 60.167 49.505 76.708l-17.443 46.017c-21.832-19.441-39.706-42.215-54.365-67.615 6.193 33.317 18.853 63.186 45.311 85.762-10.505 19.638-28.653 35.827-52.288 49.506 8.349-23.126 8.113-42.802 1.607-59.971-15.679-41.509-59.031-55.345-88.781-85.409-2.979-3.018-5.801-6.115-8.545-9.29a87.34 87.34 0 01-4.155 1.215c-15.522 4.195 19.01 28.143 56.364 59.971 36.61 31.201 67.968 63.381 23.441 109.478-48.919 50.759-184.656-4.783-213.192-65.735z"/></svg>