<svg xmlns="http://www.w3.org/2000/svg" shape-rendering="geometricPrecision" text-rendering="geometricPrecision" image-rendering="optimizeQuality" fill-rule="evenodd" clip-rule="evenodd" viewBox="0 0 512 503.015"><path fill-rule="nonzero" d="M380.244 123.682c-6.032.015-11.617-.327-16.729-.931a73.79 73.79 0 01-10.775-1.779c-6.596-1.426-12.166-3.295-16.618-5.286-54.755 23.453-129.562 58.648-193.224 103.084-63.99 44.664-116.741 98.583-125.822 158.874-1.37 9.097-1.457 17.853-.167 26.235a73.514 73.514 0 007.976 23.802c14.827 27.564 40.23 44.502 69.18 52.896 34.657 10.049 74.308 7.955 107.382-2.768 44.003-14.268 84.711-45.103 120.704-81.877 36.387-37.176 67.895-80.36 93.192-118.812 9.074-13.794 17.662-27.84 25.668-42.183 7.097-12.715 13.702-25.608 19.737-38.7a67.206 67.206 0 01-4.68-6.864c-4.996-8.376-8.53-18.281-10.661-29.311a171.75 171.75 0 01-2.121-10.368c-2.892 3.409-5.992 6.63-9.489 9.634a72.54 72.54 0 01-4.784 3.775c-9.979 8.113-21.216 13.501-34.407 13.607a7.969 7.969 0 01-7.165-4.355l-.022.011c-2.931-5.746-5.117-11.674-6.529-17.792a56.397 56.397 0 01-1.641-9.603 60.807 60.807 0 01-.21-4.405c-.203-5.515.192-11.141 1.205-16.884zm67.044-101.671C453.337 9.583 463.133 2.782 472.822.7c6.867-1.477 13.741-.582 19.399 2.362 5.97 3.105 10.558 8.4 12.469 15.542 2.468 9.228.187 21.544-10.341 35.689a51.143 51.143 0 012.868 2.416 45.652 45.652 0 017.874 9.318c10.908 17.142 6.657 35.205 2.412 53.236-1.523 6.469-3.045 12.934-3.684 18.901-1.349 12.587-2.291 25.149-1.81 36.96.465 11.439 2.258 22.257 6.314 31.823a7.968 7.968 0 01-8.216 11.014l-.002.016c-10.572-1.204-19.627-4.681-27.218-10.053-5.567 11.759-11.564 23.34-17.94 34.763-8.131 14.566-16.933 28.953-26.293 43.182-25.787 39.199-57.934 83.246-95.129 121.249-37.588 38.403-80.397 70.7-127.203 85.877-35.829 11.617-78.907 13.849-116.694 2.892-32.828-9.518-61.738-28.918-78.803-60.645-4.974-9.248-8.179-18.922-9.728-28.988-1.535-9.967-1.44-20.306.167-30.984 9.85-65.4 65.331-122.672 132.509-169.562 62.214-43.424 134.439-78.008 189.116-101.701a59.93 59.93 0 01-6.056-7.424c-5.287-7.659-8.133-15.687-9.023-21.96l-.037-.307c-1.272-9.556 2.13-16.673 8.675-18.056 3.706-.784 7.655.428 11.457 4.2 17.067 16.928 36.824 1.149 56.6-14.648 20.391-16.285 40.801-32.582 62.783-23.801zm28.846-5.687c-6.654 1.43-13.548 7.329-16.85 18.858a7.985 7.985 0 01-12.376 4.743c-15.619-11.044-34.054 3.68-52.467 18.387-22.589 18.043-45.157 36.064-69.064 20.588 1.056 2.753 2.564 5.699 4.581 8.621 5.568 8.065 14.987 15.713 29.481 18.487.906.16 1.835.311 2.786.452l1.03.147c7.371.918 15.933.628 25.824-1.365a7.991 7.991 0 019.909 5.869 7.974 7.974 0 01.537 7.081c-3.203 7.899-4.654 15.63-4.486 22.737l.04.695a57.47 57.47 0 001.261 8.837c.831 3.182 2.053 6.149 3.646 8.837 8.007-2.23 14.27-5.29 19.488-9.003.438-.362.872-.73 1.305-1.106 6.448-5.598 12.465-12.715 18.203-20.135a512.13 512.13 0 003.128-4.487 8.073 8.073 0 011.513-1.636l1.013-1.358a7.974 7.974 0 0114.375 5.031c-.39 10.567.211 20.467 1.843 29.41a123.824 123.824 0 002.352 8.59c3.135 9.964 7.344 18.313 12.922 24.735.341.377.642.784.901 1.214 3.456 3.406 7.441 6.157 11.967 8.15-1.708-7.372-2.602-15.066-2.923-22.953-.523-12.835.458-26.095 1.871-39.274.757-7.075 2.377-13.955 3.998-20.837 3.485-14.805 6.976-29.635-.288-41.05-1.343-2.112-3.063-4.139-5.187-6.068-2.193-1.991-4.774-3.828-7.767-5.492a8.393 8.393 0 01-1.469-1.062 7.965 7.965 0 01-.563-11.249c11.264-12.431 14.211-21.908 12.585-27.989-.672-2.515-2.295-4.382-4.406-5.48-2.423-1.26-5.508-1.614-8.713-.925z"/></svg>