<svg xmlns="http://www.w3.org/2000/svg" shape-rendering="geometricPrecision" text-rendering="geometricPrecision" image-rendering="optimizeQuality" fill-rule="evenodd" clip-rule="evenodd" viewBox="0 0 461 511.602"><path d="M131.487 170.385c16.65-13.421 29.439-30.288 39.545-49.073 10.25-19.055 17.752-40.077 23.719-61.506 7.108-25.461 15.223-42.395 23.73-51.296 5.638-5.898 11.655-8.695 17.916-8.5 6.194.191 12.06 3.306 17.484 9.231 8.839 9.657 17.057 27.709 23.94 53.455 5.591 20.937 11.658 40.809 18.598 58.676 6.886 17.725 14.656 33.585 23.708 46.705 11.82 17.118 34.933 31.66 58.647 46.579 50.368 31.688 103.273 64.973 73.699 132.419-12.202 27.828-39.741 48.865-72.735 63.536-34.766 15.46-75.818 23.955-111.021 25.86a155.562 155.562 0 0111.203 15.364 148.063 148.063 0 0114.793 30.195 6.9 6.9 0 01-11.95 6.54l-14.901-16.276 2.748 19.35a6.898 6.898 0 01-12.689 4.588l-13.204-21.249-5.922 31.014a6.9 6.9 0 01-13.55.027l-8.423-39.565-27.341 20.444a6.908 6.908 0 01-9.472-9.917l27.415-37.521c-39.95-1.255-88.939-8.19-129.138-26.492-33.647-15.318-61.221-38.566-72.732-73.027-23.86-71.382 33.7-108.397 86.258-142.196 14.319-9.206 28.249-18.166 39.675-27.365zm7.6 15.745c-37.801 69.566-107.627 157.233-4.49 230.735 29.72 6.59 60.224 8.991 85.628 9.044-120.345-43.23-52.443-196.337-25.881-240.751-19.025 68.405-64.542 175.147 29.714 241.537a6.9 6.9 0 012.343 10.179l-8.46 11.579a6.9 6.9 0 0110.133 4.585l3.577 16.802 2.814-14.732a6.902 6.902 0 0112.65-2.421l5.226 8.413-1.268-8.927.016-.002a6.876 6.876 0 016.244-7.799 154.187 154.187 0 00-8.731-9.483l.018-.019a6.886 6.886 0 014.869-11.755c7.064.008 14.489-.293 22.145-.906 104.24-68.146 11.286-188.695-10.074-302.963 11.789 28.925 23.618 57.97 36.096 86.531 17.703 40.55 55.337 99.898 43.305 142.879-5.388 19.243-18.27 37.513-33.299 50.637-11.506 10.045-23.351 16.367-35.157 22.846 24.2-2.007 50.67-7.126 75.402-15.48 67.988-55.059 52.699-128.882-3.468-195.145-16.124-10.889-30.441-22.267-39.653-35.608-9.702-14.061-17.958-30.877-25.218-49.566-7.206-18.55-13.417-38.85-19.086-60.08-6.317-23.629-13.432-39.731-20.754-47.731-2.815-3.074-5.405-4.676-7.71-4.748-2.237-.069-4.767 1.324-7.547 4.233-6.999 7.323-13.968 22.298-20.435 45.464-6.226 22.361-14.08 44.342-24.852 64.368-10.919 20.296-24.831 38.594-43.057 53.286-12.04 9.695-26.252 18.835-40.862 28.229-48.252 31.03-101.097 65.014-80.642 126.211 10.124 30.309 34.959 51.02 65.388 64.873 12.86 5.854 26.706 10.489 40.882 14.108C.316 353.078 82.789 253.782 139.087 186.13zm224.334 216.352a244.56 244.56 0 0010.701-4.453c30.112-13.39 55.058-32.16 65.715-56.461 23.748-54.162-18.968-84.008-62.534-111.546 49.82 51.775 60.801 126.23-13.882 172.46z"/></svg>