<svg xmlns="http://www.w3.org/2000/svg" shape-rendering="geometricPrecision" text-rendering="geometricPrecision" image-rendering="optimizeQuality" fill-rule="evenodd" clip-rule="evenodd" viewBox="0 0 480.999 511.739"><path d="M238.083.052c72.045-1.179 127.133 17.941 166.404 46.105 51.054 36.611 75.619 88.795 76.498 132.674.967 48.222-47.124 80.466-114.022 97.125-11.293 2.812-23.171 5.201-35.456 7.166 6.661 20.812 11.036 40.784 13.153 61.136 2.198 21.113 1.945 42.358-.726 65.072-6.536 55.623-43.199 101.376-101.391 102.392-54.191.952-96.583-38.509-105.234-91.592-3.93-24.136-4.972-46.93-2.859-69.874 2.056-22.331 7.046-44.477 15.199-67.797C68.938 268.718 4.607 235.214.292 180.612c-.137-1.735-.233-4.057-.277-6.968-.61-37.332 17.3-78.383 54.066-111.185C89.41 30.941 142.413 6.771 213.174 1.174c7.492-.592 15.794-.972 24.909-1.122zm219.235 202.579c-5.504.469-11.398-.974-17.272-4.093-7.092-3.765-14.562-10.314-21.008-18.831a90.271 90.271 0 01-2.94-4.165c-6.587-9.838-10.766-20.374-12.19-29.457-1.908-12.168.936-22.748 8.987-28.842l1.024-.703c8.051-5.383 17.99-4.881 27.89.372a48.203 48.203 0 014.385 2.652c-11.817-21.976-30.057-43.208-55.095-60.518a24.16 24.16 0 01-.6 5.874l-.359 1.368c-2.963 10.236-11.896 16.893-24.275 19.546-9.097 1.947-20.615 1.73-32.767-.961l-.605-.125a108.248 108.248 0 01-5.921-1.551c-13.651-3.948-25.527-10.319-33.687-17.416-10.569-9.197-15.869-20.358-13.382-31.277l.359-1.371c1.409-4.864 4.167-8.92 8-12.122-15.417-2.079-31.902-3.076-49.495-2.788-11.653.191-22.831.891-33.548 2.038 5.102 3.43 8.732 8.104 10.423 13.943l.344 1.37c2.503 10.922-2.798 22.081-13.367 31.277-8.155 7.098-20.035 13.469-33.684 17.417-2.074.599-4.07 1.117-5.97 1.548-12.349 2.811-24.087 3.064-33.323 1.089-12.384-2.648-21.315-9.308-24.278-19.547l-.344-1.37c-1.371-5.983-.4-12.038 2.498-17.802-40.831 21.138-67.492 51.044-80.209 81.733 6.274-7.06 13.061-12.548 19.555-15.995 11.012-5.846 21.982-6.472 30.752-.6l1.094.773c8.827 6.663 11.917 18.448 9.776 32.094-1.66 10.559-6.541 22.859-14.251 34.369a104.874 104.874 0 01-3.452 4.884c-7.516 9.931-16.191 17.548-24.397 21.905-4.563 2.422-9.12 3.946-13.517 4.485 13.583 16.217 36.106 29.1 63.932 38.696-5.017-7.869-7.23-16.897-5.722-26.119l.062-.414c2.102-12.049 10.091-21.599 21.349-27.334 9.946-5.068 22.67-7.108 35.864-4.951l.791.114c13.344 2.345 24.924 8.653 32.857 16.953 8.871 9.277 13.359 21.113 11.368 33.286l-.054.408c-1.873 10.702-8.385 19.431-17.703 25.268a524.823 524.823 0 0018.142 1.879c13.107.452 28.385.674 43.973.674 21.319 0 42.96-.406 60.276-1.191 13.85-1.337 27.381-3.19 40.362-5.552-10.763-5.781-18.369-15.132-20.43-26.841l-.044-.416c-1.991-12.175 2.5-24.007 11.366-33.284 7.932-8.299 19.513-14.608 32.856-16.958.267 0 .533-.106.781-.106 13.194-2.162 25.92-.124 35.875 4.949 11.257 5.734 19.249 15.283 21.369 27.334l.044.411c1.117 6.829.194 13.552-2.398 19.777 18.711-9.797 32.709-21.735 39.933-35.786zm-158.932 84.675a582.977 582.977 0 01-33.61 2.19c-24.131.882-48.569.334-72.236-1.657-9.684-.338-18.251-.8-24.988-1.391-16.237 45.542-19.679 85.4-12.287 130.76 16.263 99.781 156.81 107.139 170.57-9.944 5.05-42.961 1.016-79.843-12.39-120.816-4.532.323-9.601.608-15.059.858zm73.734-31.543a296.351 296.351 0 0014.217-4.359c13.628-6.535 22.107-18.579 20.141-30.6-2.542-15.523-21.543-25.126-42.441-21.447-20.899 3.682-35.782 19.249-33.24 34.773 2.494 15.249 20.868 24.784 41.323 21.633zm90.389-70.098c.241-2.121.349-4.279.305-6.477-.139-6.922-.969-14.09-2.485-21.378a72.924 72.924 0 00-5.804-10.378c-10.976-16.39-25.962-25.067-33.473-19.381-7.508 5.685-4.697 23.577 6.278 39.967 10.975 16.389 25.959 25.067 33.47 19.381a8.698 8.698 0 001.709-1.734zM371.582 47.13c-16.628-8.91-35.635-16.198-57.078-21.237-11.724.562-20.231 4.637-21.81 11.576-2.578 11.325 14.272 25.988 37.64 32.749 23.365 6.761 44.396 3.063 46.974-8.264 1.056-4.639-1.15-9.838-5.726-14.824zM18.223 174.414c.044 1.6.115 3.194.24 4.774.491 6.211 2.044 12.1 4.528 17.677 9.253 5.826 26.725-4.588 39.612-23.829 13.22-19.743 16.607-41.298 7.56-48.145-9.047-6.849-27.099 3.604-40.319 23.345-5.933 8.859-9.883 18.082-11.621 26.178zm137.213-144.14c23.365-6.761 44.396-3.061 46.974 8.263 2.578 11.327-14.272 25.99-37.637 32.751-23.366 6.761-44.399 3.061-46.977-8.263-2.578-11.325 14.272-25.987 37.64-32.751zm92.753 73.395c27.839 0 50.405 15.715 50.405 35.099 0 19.386-22.566 35.101-50.405 35.101-27.835 0-50.402-15.715-50.402-35.101 0-19.384 22.567-35.099 50.402-35.099zM146.423 205.125c20.899 3.682 35.781 19.25 33.242 34.775-2.542 15.524-21.543 25.127-42.441 21.447-20.899-3.681-35.781-19.249-33.24-34.772 2.539-15.526 21.54-25.129 42.439-21.45zM248.189 90.354c28.017 0 63.855 16.252 63.855 48.414 0 32.164-35.835 48.416-63.855 48.416-28.019 0-63.852-16.255-63.852-48.416 0-32.162 35.836-48.414 63.852-48.414z"/></svg>