<svg xmlns="http://www.w3.org/2000/svg" shape-rendering="geometricPrecision" text-rendering="geometricPrecision" image-rendering="optimizeQuality" fill-rule="evenodd" clip-rule="evenodd" viewBox="0 0 387 511.668"><path d="M8.041 51.345h28.722C87.534 16.93 141.088 0 194.746 0c54.258 0 108.542 17.313 160.093 51.345h24.122a5.045 5.045 0 015.042 5.042v40.657a5.045 5.045 0 01-5.042 5.042H8.041A5.045 5.045 0 013 97.044V56.387a5.045 5.045 0 015.041-5.042zM193.5 158.547c29.947 0 57.064 12.144 76.687 31.77 19.627 19.623 31.77 46.739 31.77 76.687 0 29.947-12.143 57.063-31.767 76.69-19.626 19.623-46.743 31.767-76.69 31.767-29.947 0-57.064-12.144-76.69-31.767-19.624-19.627-31.767-46.743-31.767-76.69 0-29.948 12.143-57.064 31.77-76.687 19.623-19.626 46.745-31.77 76.687-31.77zm-12.256 40.914l29.853-.1c5.399-.017 9.083.953 12.623 5.607l8.427 15.056 8.542-5.282-14.722 25.735-29.779-.112 9.104-5.282-15.338-25.962c-1.455-2.464-2.507-4.416-4.605-6.464-1.264-1.233-2.648-2.274-4.105-3.196zm7.202 124.877l-28.644.057c-6.338-.976-10.4-4.404-11.61-9.193-1.044-4.128-.018-6.035 1.779-9.589 2.142-4.24 4.675-8.335 7.1-12.47l31.724.112-.349 31.083zm-45.63-11.158l-15.013-25.804c-2.716-4.667-3.717-8.34-1.455-13.735l8.825-14.827-8.843-4.755 29.646-.118 14.791 25.845-9.124-5.244-14.817 26.264c-1.404 2.492-2.57 4.381-3.293 7.219-.436 1.711-.648 3.432-.717 5.155zm103.441-67.464l14.37 24.778c2.326 5.976 1.386 11.207-2.157 14.65-3.054 2.967-5.218 3.031-9.193 3.253-4.743.265-9.555.117-14.347.087l-15.769-27.528 27.096-15.24zm13.15 45.093l-14.84 25.906c-2.683 4.685-5.366 7.388-11.166 8.129l-17.255-.233.304 10.038-14.926-25.615 14.987-25.732.023 10.522 30.152-.301c2.859-.028 5.08.036 7.898-.756 1.703-.477 3.296-1.154 4.823-1.958zm-110.64-57.411l14.272-24.834c4.014-5.001 9.012-6.803 13.766-5.457 4.097 1.158 5.235 3.002 7.415 6.333 2.599 3.975 4.879 8.218 7.248 12.384l-15.955 27.417-26.746-15.843zm115.161-36.822c-18.021-18.023-42.924-29.171-70.428-29.171-27.504 0-52.407 11.148-70.428 29.171-18.023 18.021-29.171 42.924-29.171 70.428 0 27.504 11.148 52.407 29.169 70.43 18.023 18.021 42.926 29.169 70.43 29.169 27.504 0 52.407-11.148 70.43-29.169 18.021-18.023 29.169-42.926 29.169-70.43 0-27.504-11.148-52.407-29.171-70.428zM104.49 501.337h178.022c15.07 0 25.529-12.443 27.397-27.4l1.468-11.746 3.15-25.224 39.243-314.073H33.23l39.243 314.073 3.15 25.224 1.468 11.746c1.866 14.924 12.33 27.4 27.399 27.4zM6.951 400.227h25.246c3.821 0 6.948 3.132 6.948 6.951v29.789h22.92L21.533 112.563h343.931l-40.529 324.404h22.92v-29.789c0-3.824 3.127-6.951 6.951-6.951h25.245c3.822 0 6.949 3.132 6.949 6.951v84.808c0 3.819-3.13 6.948-6.949 6.948h-25.245c-3.819 0-6.951-3.127-6.951-6.948v-29.795h-26.072l-1.624 12.997c-1.251 10.012-5.56 19.241-12.197 25.878-6.543 6.543-15.243 10.602-25.45 10.602H104.49c-10.206 0-18.898-4.061-25.441-10.604-6.643-6.643-10.957-15.879-12.208-25.876l-1.624-12.997H39.145v29.795c0 3.816-3.132 6.948-6.948 6.948H6.951c-3.816 0-6.951-3.127-6.951-6.948v-84.808c0-3.824 3.127-6.951 6.951-6.951zM163.476 34.548h60.045a3.6 3.6 0 013.592 3.586v17.628a3.597 3.597 0 01-3.589 3.589h-60.048a3.6 3.6 0 01-3.587-3.589V38.139a3.605 3.605 0 013.592-3.591h-.005z"/></svg>