<svg xmlns="http://www.w3.org/2000/svg" shape-rendering="geometricPrecision" text-rendering="geometricPrecision" image-rendering="optimizeQuality" fill-rule="evenodd" clip-rule="evenodd" viewBox="0 0 470 511.7"><path fill-rule="nonzero" d="M226.091 268.372c2.65 21.497.83 41.019-5.022 57.177-4.489 12.393-11.336 22.812-20.35 30.665-9.105 7.931-20.351 13.213-33.541 15.241-14.932 2.295-32.353.353-51.939-6.742-37.875-13.72-70.729-49.703-91.534-99.459C4.459 219.231-4.575 161.227 2.278 98.163a6.911 6.911 0 017.449-6.156c59.622 2.18 107.203 21.431 142.479 49.303 21.517 17.001 38.443 37.208 50.735 58.716-.711-12.176-.07-25.075 2.103-38.474 7.441-45.914 32.817-97.913 83.141-146.8A390.614 390.614 0 01302.257 1.75c2.761-2.418 7.133-2.317 9.764.225l.269.276c47.87 51.695 76.858 97.827 89.132 139.799 12.143 41.525 7.991 78.885-10.392 113.421 7.004-5.418 13.685-10.188 19.854-14.125 24.198-15.443 35.309-16.666 43.209-4.288 4.202 6.585 6.148 17.062 8.896 31.873l.552 2.969c6.878 36.892 10.391 93.696-.511 141.939-8.035 35.557-23.91 66.659-51.973 82.586-22.184 12.592-46.684 16.988-69.324 14.69-15.375-1.562-29.937-6.216-42.383-13.493-12.614-7.376-23.071-17.451-30.052-29.752-7.225-12.729-10.709-27.754-9.006-44.536.761-7.495 1.641-15.196 3.728-23.263 8.217-31.768 43.477-66.16 63.91-87.239a72.546 72.546 0 01-9.005 1.803c-16.722 2.253-34.263-1.351-51.896-11.18-14.188-7.911-30.634-21.413-40.938-35.083zm-73.072 59.082a6.897 6.897 0 01-3.41 13.364c-13.268-3.41-25.993-8.705-37.464-15.654-11.261-6.824-21.313-15.222-29.496-24.983a6.915 6.915 0 01.866-9.739 6.915 6.915 0 019.739.866c7.234 8.63 16.107 16.046 26.034 22.061 10.311 6.247 21.769 11.012 33.731 14.085zM36.474 259.953c19.312 46.182 49.275 79.387 83.474 91.775 17.266 6.255 32.401 8 45.174 6.038 10.472-1.611 19.359-5.766 26.508-11.994 7.24-6.308 12.778-14.781 16.454-24.93 5.516-15.23 6.883-34.23 3.618-55.475-6.19-40.255-28.983-82.373-68.045-113.237-31.917-25.216-74.729-42.925-128.282-46.034-5.315 58.134 3.342 111.39 21.099 153.857zm253.368-1.114a6.906 6.906 0 011.759 9.604 6.906 6.906 0 01-9.604 1.759c-9.488-6.532-18.093-14.139-25.437-22.577-7.224-8.3-13.281-17.434-17.821-27.178a6.926 6.926 0 013.354-9.199 6.925 6.925 0 019.199 3.354c3.984 8.553 9.325 16.598 15.71 23.933 6.64 7.629 14.366 14.47 22.84 20.304zm42.152 224.173a6.905 6.905 0 013.679-13.31c14.782 4.128 24.171-.915 34.522-6.474l2.822-1.507a6.91 6.91 0 019.333 2.894 6.91 6.91 0 01-2.895 9.333l-2.714 1.453c-12.916 6.938-24.63 13.229-44.747 7.611zm18.255-173.055c-24.318 23.904-47.713 50.27-63.678 72.585-4.645 7.122-7.413 14.129-9.188 20.992-1.834 7.093-2.644 14.205-3.348 21.153-1.399 13.785 1.417 26.045 7.275 36.366 5.752 10.136 14.461 18.493 25.019 24.665 10.728 6.274 23.357 10.293 36.758 11.654 19.97 2.028 41.582-1.85 61.153-12.959 24.166-13.716 38.07-41.534 45.318-73.605 10.442-46.209 7.031-100.859.402-136.42l-.552-2.969c-2.461-13.263-4.203-22.647-6.948-26.948-2.345-3.673-8.577-1.439-24.164 8.508-19.267 12.295-44.045 33.384-68.047 56.978zm-76.075-17.367c14.749 8.223 29.197 11.268 42.76 9.441 13.577-1.83 26.514-8.586 38.218-19.956 7.981-7.752 15.38-17.631 22.02-29.541 18.123-32.508 22.45-67.798 10.923-107.217-11.323-38.719-37.88-81.519-81.565-129.645a369.205 369.205 0 00-8.326 7.843c-48.168 46.793-72.416 96.311-79.481 139.899-8.971 55.342 7.809 102.617 55.451 129.176z"/></svg>