<svg xmlns="http://www.w3.org/2000/svg" shape-rendering="geometricPrecision" text-rendering="geometricPrecision" image-rendering="optimizeQuality" fill-rule="evenodd" clip-rule="evenodd" viewBox="0 0 486 511.602"><path d="M16.576 28.26h343.463c-12.273 9.391-25.012 16.521-38.171 21.364H221.5v440.61h178.545v-288.42a124.601 124.601 0 0110.236-21.982 128.72 128.72 0 0111.511-16.386v331.578c0 9.109-7.468 16.578-16.575 16.578H16.576C7.467 511.602 0 504.142 0 495.024V44.836C0 35.72 7.458 28.26 16.576 28.26zM390.17 171.791l-2.563-.335a5.945 5.945 0 01-5.126-6.663c1.263-9.67.641-18.969-1.866-27.882-2.516-8.952-6.944-17.549-13.274-25.781l-.02-.026c-6.335-8.237-13.503-14.722-21.498-19.451-7.97-4.711-16.798-7.703-26.471-8.967a5.946 5.946 0 01-5.126-6.663l.336-2.566a5.947 5.947 0 016.663-5.126c9.674 1.265 18.975.64 27.891-1.87 8.949-2.519 17.547-6.954 25.781-13.297 8.251-6.379 14.752-13.578 19.488-21.59 4.71-7.968 7.7-16.772 8.957-26.398a5.945 5.945 0 016.663-5.125l2.565.334a5.946 5.946 0 015.126 6.663c-1.264 9.672-.641 18.969 1.866 27.883 2.516 8.953 6.947 17.553 13.28 25.787l.236.331c6.26 8.074 13.356 14.46 21.283 19.148 7.969 4.71 16.792 7.703 26.462 8.966a5.946 5.946 0 015.126 6.663l-.334 2.556a5.946 5.946 0 01-6.663 5.126c-9.669-1.264-18.966-.639-27.876 1.866-8.954 2.517-17.551 6.945-25.785 13.276-8.253 6.353-14.752 13.539-19.488 21.551-4.715 7.973-7.707 16.798-8.969 26.464a5.947 5.947 0 01-6.664 5.126zm-102.667 52.295l-1.473-.193a5.942 5.942 0 01-5.124-6.661c.676-5.171.34-10.148-1.002-14.919-1.353-4.805-3.743-9.437-7.162-13.881l-.02-.026c-3.414-4.438-7.272-7.936-11.565-10.474-4.262-2.522-8.986-4.127-14.153-4.8a5.945 5.945 0 01-5.125-6.662l.193-1.48a5.945 5.945 0 016.662-5.125c5.172.677 10.149.341 14.918-1.002 4.803-1.351 9.432-3.739 13.872-7.155 4.462-3.44 7.969-7.309 10.513-11.602 2.52-4.255 4.122-8.959 4.792-14.1a5.944 5.944 0 016.662-5.124l1.471.192a5.943 5.943 0 015.125 6.662c-.675 5.167-.338 10.142 1.005 14.912 1.354 4.807 3.743 9.439 7.16 13.879l.02.026c3.415 4.44 7.266 7.933 11.553 10.473 4.259 2.522 8.983 4.125 14.165 4.802a5.944 5.944 0 015.125 6.661l-.194 1.481a5.942 5.942 0 01-6.661 5.124c-5.166-.675-10.145-.34-14.916 1.002-4.807 1.353-9.437 3.739-13.874 7.154l-.026.02c-4.451 3.398-7.945 7.245-10.475 11.516-2.528 4.268-4.128 8.998-4.805 14.176a5.942 5.942 0 01-6.661 5.124zm-5.329-42.895c3.658 4.761 6.404 9.729 8.233 14.894 3.104-4.532 7.043-8.625 11.82-12.269 4.759-3.654 9.728-6.398 14.897-8.227-4.537-3.105-8.641-7.045-12.306-11.819-3.662-4.77-6.412-9.75-8.242-14.93-3.097 4.516-7.027 8.609-11.786 12.279-4.768 3.67-9.747 6.422-14.925 8.254 4.538 3.102 8.645 7.043 12.309 11.818zm109.905-47.495a78.608 78.608 0 011.157 4.653 78.6 78.6 0 012.315-4.205c5.502-9.305 12.995-17.61 22.47-24.905 9.48-7.288 19.431-12.402 29.84-15.329a76.696 76.696 0 014.636-1.152 78.796 78.796 0 01-4.193-2.309c-9.17-5.425-17.378-12.81-24.614-22.148l-.259-.313c-7.294-9.483-12.409-19.434-15.333-29.841a78.152 78.152 0 01-1.163-4.686 78.351 78.351 0 01-2.298 4.17c-5.497 9.298-12.992 17.615-22.471 24.944-9.477 7.3-19.426 12.42-29.835 15.35a77.87 77.87 0 01-4.66 1.158 79.52 79.52 0 014.21 2.319c9.311 5.506 17.612 13.001 24.896 22.482 7.275 9.474 12.379 19.414 15.302 29.812zm-41.881 204.973a7.061 7.061 0 019.931 1.023 7.062 7.062 0 01-1.024 9.932l-90.015 73.521a7.06 7.06 0 01-8.907-10.954l90.015-73.522zM146.226 195.622a7.066 7.066 0 01-8.355-11.396l19.147-14.114a7.066 7.066 0 018.355 11.396l-19.147 14.114zm-75.234 63.016a7.07 7.07 0 01-9.959-.83 7.069 7.069 0 01.83-9.959l57.172-48.505a7.068 7.068 0 019.959.83 7.068 7.068 0 01-.831 9.959l-57.171 48.505zm-3.609-56.114a7.06 7.06 0 01-8.907-10.954l90.015-73.52a7.06 7.06 0 018.907 10.954l-90.015 73.52zm203.972 143.049a7.066 7.066 0 018.355 11.396l-19.145 14.114a7.068 7.068 0 01-9.876-1.52 7.068 7.068 0 011.52-9.876l19.146-14.114zm75.234-63.017a7.068 7.068 0 019.129 10.789l-57.172 48.505a7.069 7.069 0 01-9.959-.83 7.069 7.069 0 01.83-9.959l57.172-48.505zM21.748 49.624h178.543v440.61H21.748V49.624z"/></svg>